<?xml version="1.0" encoding="utf-8"?><!-- Generator: Adobe Illustrator 26.0.2, SVG Export Plug-In . SVG Version: 6.00 Build 0)  -->
<svg version="1.1" id="Layer_1" xmlns="http://www.w3.org/2000/svg" x="0px" y="0px"
    viewBox="0 0 828.2 707.6" enable-background="new 0 0 828.2 707.6" xml:space="preserve">
<path fill="#FF6584" d="M529.9,40.2c84.1,1.4,84.1,126.6,0,128C445.8,166.8,445.8,41.6,529.9,40.2z" />
    <path fill="#61AFA2"
        d="M337.2,412.2C329.3,743.3-274,562.3,173.1,131.4C173.1,131.4,337.2,288.6,337.2,412.2z" />
    <path fill="#3F3D56" d="M167.1,560.1l1.7-103.5l70-128l-69.7,111.8l0.8-46.5l48.2-92.6l-48,80.3l0,0l1.4-83.7l51.6-73.7l-51.4,60.6
	l0.9-153.4l-5.3,203.1l0.4-8.4L115,245.7l51.6,96.4l-4.9,93.4l-0.1-2.5l-60.5-84.5l60.3,93.3c-0.1,0.2-0.4,11.8-0.7,11.9
	c0.3,0.5-12.4,237.3-12.4,238H165l2-122.4l60.2-93.1L167.1,560.1z" />
    <path fill="#61AFA2"
        d="M823.6,347.4C813.9,751.8,76.9,530.7,623.1,4.3C623.1,4.3,823.6,196.4,823.6,347.4z" />
    <path fill="#3F3D56" d="M615.8,528l2-126.4l85.5-156.4l-85.1,136.5l0.9-56.8L678,211.9L619.3,310l0,0l1.7-102.2l63.1-90.1l-62.8,74
	l1-187.4l-6.5,248.1l0.5-10.2L552.2,144l63.1,117.8l-6,114.1l-0.2-3l-73.9-103.3l73.7,114c-0.1,0.2-0.5,14.4-0.9,14.5
	c0.3,0.5-15.2,290-15.1,290.8h20.2l2.4-149.6l73.5-113.7L615.8,528z" />
    <path fill="#3F3D56"
        d="M408.9,678.2c397.7-0.4,397.7,22.4,0,22C11.2,700.6,11.2,677.8,408.9,678.2z" />
    <rect x="390.9" y="351.2" fill="#5579AB" width="36" height="338" />
    <polygon fill="#5579AB" points="573.9,428.2 352.9,428.2 352.9,366.2 573.9,366.2 637.9,397.2 " />
    <polygon opacity="0.1" enable-background="new    " points="573.9,423.2 352.9,423.2 352.9,428.2 573.9,428.2 637.9,397.2
	632.8,394.7 " />
    <polygon fill="#5579AB" points="244.9,510.2 465.9,510.2 465.9,448.2 244.9,448.2 180.9,479.2 " />
    <polygon opacity="0.1" enable-background="new    " points="186.1,476.7 180.9,479.2 244.9,510.2 465.9,510.2 465.9,505.2
	244.9,505.2 " />
    <rect x="476.9" y="378.2" fill="#F8B445" width="38" height="38" />
    <path fill="#F8B445" d="M323.9,460.2c25,0.4,25,37.6,0,38C298.9,497.8,299,460.6,323.9,460.2z" />
    <path fill="#2F2E41"
        d="M408.9,384.2c14.4,0.1,14.4,21.9,0,22C394.5,406.1,394.5,384.3,408.9,384.2z" />
    <path fill="#2F2E41"
        d="M408.9,466.2c14.4,0.1,14.4,21.9,0,22C394.5,488.1,394.5,466.3,408.9,466.2z" />
    <path fill="#F8B445"
        d="M334.9,651.5c-1.2,60-111.2,27.6-29.8-51C305.1,600.5,334.9,629.1,334.9,651.5z" />
    <path fill="#3F3D56" d="M304,678.4l10.9-15.2L304,680.1l0,1.8c-0.8,0-1.5,0-2.3-0.1c0-0.2,1.2-22.5,1.2-22.7c0.1,0,0.1-2.1,0.1-2.2
	l-11-17l11,15.4l0,0.5l0.9-17l-9.4-17.5l9.5,14.5c0-0.1,0.9-35.2,0.9-35.3c0,0.1-0.1,27.8-0.1,27.9l9.4-11l-9.4,13.4l-0.2,15.2
	l8.7-14.6l-8.8,16.8l-0.1,8.5l12.7-20.3l-12.7,23.3L304,678.4z" />
</svg>
