<?xml version="1.0" encoding="utf-8"?><!-- Generator: Adobe Illustrator 26.0.2, SVG Export Plug-In . SVG Version: 6.00 Build 0)  -->
<svg version="1.1" id="Layer_1" xmlns="http://www.w3.org/2000/svg" x="0px" y="0px"
	viewBox="0 0 979.56 773.96" enable-background="new 0 0 979.56 773.96" xml:space="preserve">
<path fill="#FF6584"
	d="M525.56,35.96c84.13,1.44,84.11,126.58,0,128C441.43,162.52,441.44,37.38,525.56,35.96z" />
	<path fill="#F2F2F2"
		d="M332.85,407.97c-7.93,331.05-611.22,150.08-164.13-280.86C168.72,127.11,332.85,284.36,332.85,407.97z" />
	<path fill="#3F3D56" d="M162.74,555.83l1.68-103.45l69.96-127.98l-69.69,111.75l0.76-46.51l48.21-92.6l-48.01,80.29l0,0l1.36-83.66
	l51.63-73.72l-51.41,60.56l0.85-153.4l-5.34,203.08l0.44-8.38l-52.49-80.35l51.65,96.43l-4.89,93.43l-0.15-2.48l-60.51-84.55
	l60.33,93.31c-0.11,0.18-0.43,11.75-0.72,11.86c0.27,0.45-12.43,237.35-12.36,238.01h16.58l1.99-122.44l60.18-93.08L162.74,555.83z" />
	<path fill="#F2F2F2"
		d="M819.24,343.12C809.55,747.55,72.53,526.47,618.72,0C618.72,0,819.24,192.11,819.24,343.12z" />
	<path fill="#3F3D56" d="M611.42,523.76l2.05-126.38l85.46-156.35l-85.14,136.53l0.92-56.83l58.9-113.12l-58.66,98.08l0,0
	l1.66-102.21l63.07-90.06l-62.81,73.99L617.92,0l-6.52,248.1l0.54-10.24l-64.13-98.16l63.1,117.8l-5.98,114.15l-0.18-3.03
	l-73.93-103.3l73.7,114c-0.13,0.22-0.53,14.37-0.88,14.49c0.33,0.55-15.18,289.96-15.1,290.77h20.25l2.43-149.58l73.52-113.72
	L611.42,523.76z" />
	<path fill="#3F3D56"
		d="M404.56,673.96c397.7-0.38,397.7,22.38,0,22C6.85,696.34,6.85,673.58,404.56,673.96z" />
	<path fill="#3F3D56"
		d="M837.56,746.96c183.91-0.38,183.91,27.38,0,27C653.65,774.33,653.64,746.58,837.56,746.96z" />
	<rect x="386.56" y="346.96" fill="#5579AB" width="36" height="338" />
	<polygon fill="#5579AB"
		points="569.56,423.96 348.56,423.96 348.56,361.96 569.56,361.96 633.56,392.96 " />
	<polygon opacity="0.1" enable-background="new    " points="569.56,418.96 348.56,418.96 348.56,423.96 569.56,423.96
	633.56,392.96 628.39,390.46 " />
	<polygon fill="#5579AB"
		points="240.56,505.96 461.56,505.96 461.56,443.96 240.56,443.96 176.56,474.96 " />
	<polygon opacity="0.1" enable-background="new    " points="181.72,472.46 176.56,474.96 240.56,505.96 461.56,505.96
	461.56,500.96 240.56,500.96 " />
	<rect x="472.56" y="373.96" fill="#F8B445" width="38" height="38" />
	<path fill="#F8B445"
		d="M319.56,455.96c24.98,0.43,24.97,37.58,0,38C294.58,493.53,294.58,456.38,319.56,455.96z" />
	<path fill="#2F2E41"
		d="M404.56,379.96c14.39,0.06,14.38,21.94,0,22C390.17,401.89,390.17,380.02,404.56,379.96z" />
	<path fill="#2F2E41"
		d="M404.56,461.96c14.39,0.06,14.38,21.94,0,22C390.17,483.89,390.17,462.02,404.56,461.96z" />
	<path fill="#F8B445"
		d="M330.56,647.29c-1.2,59.95-111.21,27.6-29.83-51.05C300.72,596.24,330.56,624.83,330.56,647.29z" />
	<path fill="#3F3D56" d="M299.63,674.17l10.91-15.25l-10.94,16.92l-0.03,1.75c-0.76-0.02-1.52-0.05-2.27-0.1
	c-0.01-0.17,1.21-22.49,1.17-22.65c0.06-0.02,0.11-2.12,0.13-2.16l-10.97-16.96l11,15.37l0.03,0.45l0.89-16.98l-9.39-17.53
	l9.5,14.55c0-0.13,0.92-35.21,0.93-35.33c0,0.07-0.15,27.79-0.15,27.88l9.35-11.01l-9.38,13.4l-0.25,15.21l8.73-14.59l-8.76,16.83
	l-0.14,8.45l12.67-20.31l-12.72,23.26L299.63,674.17z" />
	<path fill="#9B6469" d="M791.6,735.87c0,0-14.16,11.92-21.61,11.18s-21.61-0.75-15.65,7.45c9.62,12.36,65.53,19.2,73.03,10.44
	C821.83,729.8,819.97,738.65,791.6,735.87z" />
	<path fill="#9B6469" d="M872.86,724.17c0,0-10.43,15.29-17.81,16.58s-21.02,5.09-13.07,11.38c12.59,9.32,68.28,0.88,73.15-9.58
	C900.36,710.19,900.94,719.21,872.86,724.17z" />
	<path fill="#5579AB" d="M783.3,505.5c0,0-9.59,65.68-7.36,77.61s3.73,30.55,3.73,30.55s-1.49,15.65,0,23.1
	c2.72,14.69,10.98,81.91,10.43,89.43c1.49,3.73,4.47,0.74,0,6.71s-1.49,7.45-0.75,7.45s29.81,2.98,31.3,0s-0.75-3.73,0-7.45
	c0.88-8.78,8.36-2.88,5.22-8.2c-2.24-3.73-7.45-8.2-5.96-10.43s-0.75-18.63-0.75-18.63c-0.99-10.03-4.82-90.23,4.47-104.33
	c0.93,18.29,7.72,35.8,19.38,49.93c19.38,23.1,29.06,66.32,29.06,66.32s4.47,6.71,2.24,12.67s-8.94,2.24-2.24,5.96
	s29.81-1.49,32.04-3.73s-2.98-5.22-1.49-11.18s7.45-4.47,2.24-7.45s-6.71-2.24-6.71-5.22s-13.41-67.81-34.28-86.44l-1.49-67.81
	c0,0,18.63-47.69-0.75-52.16S783.3,505.5,783.3,505.5z" />
	<path fill="#E78F7E" d="M796.81,328.99c0,0,12.67,31.3,9.69,35.77c-2.98,4.47,36.52-14.9,36.52-14.9s-12.67-31.3-12.67-35.03
	C830.35,311.1,796.81,328.99,796.81,328.99z" />
	<path fill="#E78F7E"
		d="M806.13,281.66c36.24,0.62,36.24,54.53,0,55.15C769.88,336.19,769.89,282.28,806.13,281.66z" />
	<path fill="#F8B445" d="M843.02,337.18c-18.84-2.45-30.77,8.71-40.24,24.59c0,0-23.1,37.26-18.63,55.89
	c6.46,5.93,4.04,45.59,2.98,56.64c-1.49,6.71-2.98,8.94-1.49,18.63s-11.92,25.34,3.73,28.32s27.57,0.75,32.79-5.96
	s0.75-11.18,17.14-11.18s26.83-11.18,26.83-11.18s-8.2-8.94-5.22-10.43c4.78-1.58-7.02-14.65-0.74-15.65c2.24,0,0.74-1.49-0.75-5.22
	s26.08-67.81,9.69-86.44c-16.39-18.63-24.59-29.06-24.59-29.06S847.49,334.95,843.02,337.18z" />
	<path fill="#E78F7E" d="M800.54,407.98v32.79l-23.85,78.99c-22.33,56.95,17.93,51.6,14.81,1.87l33.63-59.25
	c0,0,13.41-46.95,11.92-50.67S800.54,407.98,800.54,407.98z" />
	<path fill="#F8B445" d="M813.21,359.54c-33.4,15.65-5.52,45.31-16.39,55.89c0,0,30.55-2.98,40.24,3.73
	C838.43,413.37,852.03,361.58,813.21,359.54z" />
	<path fill="#2F2E41" d="M796.71,288.54c-6.96,2.98-16.29-3.91-12.68-11.44c6.31-8.72,33.04-14.07,41.44-6.14
	c19.71,3.67,28.34,18.43,21.64,37.48c-3.18,8.46-9.84,15.85-10.21,24.88c-4.08-2.96-5.59-8.3-8.86-12.13
	c-3.26-5.66-12.43-3.81-13.25-8.88c-3.9-17.65-1.33-23.36-22.48-23.07" />
</svg>
