<?xml version="1.0" encoding="utf-8"?><!-- Generator: Adobe Illustrator 26.0.2, SVG Export Plug-In . SVG Version: 6.00 Build 0)  -->
<svg version="1.1" id="Layer_1" xmlns="http://www.w3.org/2000/svg" x="0px" y="0px"
	viewBox="0 0 828.17 707.62" enable-background="new 0 0 828.17 707.62" xml:space="preserve">
<path fill="#FF6584"
	d="M529.92,40.22c84.13,1.44,84.11,126.58,0,128C445.79,166.78,445.81,41.64,529.92,40.22z" />
	<path fill="#F2F2F2"
		d="M337.22,412.23C329.29,743.28-274,562.31,173.08,131.37C173.08,131.37,337.22,288.62,337.22,412.23z" />
	<path fill="#3F3D56" d="M167.11,560.09l1.68-103.45l69.96-127.98l-69.69,111.75l0.76-46.51l48.21-92.6L170,381.59l0,0l1.36-83.66
	l51.63-73.72l-51.41,60.56l0.85-153.4l-5.34,203.08l0.44-8.38l-52.49-80.35l51.65,96.43l-4.89,93.43l-0.15-2.48l-60.51-84.55
	l60.33,93.31c-0.11,0.18-0.43,11.75-0.72,11.86c0.27,0.45-12.43,237.35-12.36,238.01h16.58l1.99-122.44l60.18-93.08L167.11,560.09z" />
	<path fill="#F2F2F2"
		d="M823.6,347.38C813.91,751.81,76.89,530.72,623.08,4.26C623.08,4.26,823.6,196.37,823.6,347.38z" />
	<path fill="#3F3D56" d="M615.78,528.02l2.05-126.38l85.46-156.35l-85.14,136.53l0.92-56.83l58.9-113.12l-58.66,98.08l0,0
	l1.66-102.21l63.07-90.06l-62.81,73.99l1.04-187.41l-6.52,248.1l0.54-10.24l-64.13-98.16l63.1,117.8l-5.98,114.15l-0.18-3.03
	l-73.93-103.3l73.7,114c-0.13,0.22-0.53,14.37-0.88,14.49c0.33,0.55-15.18,289.96-15.1,290.77h20.25l2.43-149.58l73.52-113.72
	L615.78,528.02z" />
	<path fill="#3F3D56"
		d="M408.92,678.22c397.7-0.38,397.7,22.38,0,22C11.22,700.6,11.22,677.84,408.92,678.22z" />
	<rect x="390.92" y="351.22" fill="#5579AB" width="36" height="338" />
	<polygon fill="#5579AB"
		points="573.92,428.22 352.92,428.22 352.92,366.22 573.92,366.22 637.92,397.22 " />
	<polygon opacity="0.1" enable-background="new    " points="573.92,423.22 352.92,423.22 352.92,428.22 573.92,428.22
	637.92,397.22 632.76,394.72 " />
	<polygon fill="#5579AB"
		points="244.92,510.22 465.92,510.22 465.92,448.22 244.92,448.22 180.92,479.22 " />
	<polygon opacity="0.1" enable-background="new    " points="186.08,476.72 180.92,479.22 244.92,510.22 465.92,510.22
	465.92,505.22 244.92,505.22 " />
	<rect x="476.92" y="378.22" fill="#F8B445" width="38" height="38" />
	<path fill="#F8B445"
		d="M323.92,460.22c24.98,0.43,24.97,37.58,0,38C298.94,497.79,298.95,460.64,323.92,460.22z" />
	<path fill="#2F2E41"
		d="M408.92,384.22c14.39,0.06,14.38,21.94,0,22C394.53,406.15,394.54,384.28,408.92,384.22z" />
	<path fill="#2F2E41"
		d="M408.92,466.22c14.39,0.06,14.38,21.94,0,22C394.53,488.15,394.54,466.28,408.92,466.22z" />
	<path fill="#F8B445"
		d="M334.92,651.55c-1.2,59.95-111.21,27.6-29.83-51.05C305.09,600.5,334.92,629.08,334.92,651.55z" />
	<path fill="#3F3D56" d="M304,678.43l10.91-15.25l-10.94,16.92l-0.03,1.75c-0.76-0.02-1.52-0.05-2.27-0.1
	c-0.01-0.17,1.21-22.49,1.17-22.65c0.06-0.02,0.11-2.12,0.13-2.16l-10.97-16.96l11,15.37l0.03,0.45l0.89-16.98l-9.39-17.53
	l9.5,14.55c0-0.13,0.92-35.21,0.93-35.33c0,0.07-0.15,27.79-0.15,27.88l9.35-11.01l-9.38,13.4l-0.25,15.21l8.73-14.59l-8.76,16.83
	l-0.14,8.45l12.67-20.31l-12.72,23.26L304,678.43z" />
</svg>
