<?xml version="1.0" encoding="utf-8"?><!-- Generator: Adobe Illustrator 26.0.2, SVG Export Plug-In . SVG Version: 6.00 Build 0)  -->
<svg version="1.1" id="Layer_1" xmlns="http://www.w3.org/2000/svg" x="0px" y="0px"
	viewBox="0 0 332 358" enable-background="new 0 0 332 358" xml:space="preserve">
<g id="Layer_2_00000116953094689574834810000001103129234878385793_">
	<path id="star2" fill="#FBB540" d="M10.8,66c5.6-2.7,16.4-16.3,17.4-22.4C30.4,50.1,39.9,62,46,66c-6.4,2.4-16.2,14.7-17.4,21
		C25.4,80.4,17.4,70.4,10.8,66z" />
	<path id="star" fill="#FBB540" d="M47.1,27.2c5.6-2.7,16.4-16.3,17.4-22.4c2.2,6.5,11.7,18.4,17.8,22.4c-6.4,2.4-16.2,14.7-17.4,21
		C61.7,41.5,53.8,31.6,47.1,27.2z" />
	<path id="Wrench" fill="#CBCBCB" d="M96.2,49.7c4.1-12.1,14.8-17.8,19.6-19.9c1.1-0.5,2.3,0.3,2.3,1.5l0.1,22.4
		c2.6,12.2,21.7,12.2,24.3,0l0.1-22.7c0-1.2,1.2-2,2.3-1.5c12.6,5.3,28.7,22.5,17.6,45c-2.5,4.9-11.8,15.7-14,19.9
		c-1.6,1.7,2.8,128.6-1.9,128.2l-32.7-0.1c-4.7,0.3,0.3-126.1-1.3-127.8C101.4,81.1,89.6,64.2,96.2,49.7z" />
	<g id="hammer">
		<g id="hamer_handle">
			<path fill="#683B0D" d="M58.4,217.5c10.1,0.1,20.1,0.2,30.2,0.2c0-19.1,0-38.3,0-57.4c-10.1,0-20.2,0-30.3,0
				C58.3,179.4,58.3,198.4,58.4,217.5z" />
			<path fill="#533222" d="M58.2,146.1c0,4.8,0,9.5,0,14.3c10.1,0,20.2,0,30.3,0c0-4.2-0.1-8.4-0.1-12.6
				C78.4,147.2,68.3,146.6,58.2,146.1z" />
		</g>
		<g id="hamer_head_00000076562235517075171840000008081847617048613801_">
			<path id="hamer_head" fill="#0BAFEA" d="M88.6,118.4l-0.2-6.1l-36,0.2c-0.1,2-0.2,3.9-0.2,5.9c-7.9-2-15.8-3.9-23.7-5.9H4.3
				c0.1,12,0.2,24,0.3,35.9H29c7.8-2,15.5-4.1,23.3-6.1v5.9h36.2C88.9,138.4,88.6,128.4,88.6,118.4z" />
			<path id="front_shadow" fill="#0A9ACD" d="M28.3,112.4c0,12,0,24,0,36c8-2,15.9-4,23.9-6c0-8,0-16,0-24
				C44.3,116.4,36.3,114.4,28.3,112.4z" />
			<path id="back_shadow" fill="#0A9ACD" d="M88.6,118.4c0,7.9,0,15.8,0,23.7c4.1,0.1,8.2,0.1,12.3,0.2
				c4.6,10.4,17.4,14.1,29.5,11.9c-6-12-12-23.9-18-35.9C104.5,118.3,96.5,118.4,88.6,118.4z" />
		</g>
	</g>
	<path id="Key_00000026129456734873825520000001558050177072432805_" fill="#D32B39" d="M208.9,82.5c-17.8-0.3-33.1,13-35.8,30
		c-2.2,13.6,4,27.5,15.8,35.7c1,0.7,1.6,1.8,1.6,3l-0.1,58.5c0,2,1.6,3.7,3.6,3.7l28.9,0.3c9,2.8-0.2-63.9,5.2-65.3
		C256.8,130,243.2,82.4,208.9,82.5z M215,130.3h-13.8l-6.9-11.9l6.9-11.9H215l6.9,11.9L215,130.3z" />
	<g id="Screw_Driver">
		<path fill="#CBCBCB" d="M262.3,52.3c11.9,0.1,23.9,0.2,35.8,0.3c-11.4,32-3.1,67.7-5.4,101.3c-8.2,0-16.3,0-24.5,0
			C265.9,120.2,274.8,84.1,262.3,52.3z" />
		<path fill="#EAEAE8" d="M268.3,28.8c-2,7.8-4,15.6-6,23.4c11.9,0.1,23.9,0.2,35.8,0.3c-1.9-7.9-3.7-15.8-5.6-23.6
			C284.5,28.9,276.4,28.9,268.3,28.8z" />
		<path fill="#02A437" d="M305,170.6c-1.8,1.4-4.1,2.1-6.5,2.1v36.6c-12-0.1-24-0.3-36-0.4c-0.1-12.2-0.2-24.4-0.3-36.7
			c-15.8,0.4-15-23.9-0.4-23.9c12.2,0,24.4,0.1,36.7,0.1C309.9,148.2,313.8,164.4,305,170.6z" />
		<path fill="#027E2A"
			d="M298.6,172.7v14c-12,0-24.1,0.1-36.1,0.1c0-4.9-0.1-9.8-0.1-14.7C274.4,172.3,286.5,172.5,298.6,172.7z" />
	</g>
	<g id="box">
		<path fill="#FBB540" d="M10.4,208.2c103.9,0.1,207.8,0.1,311.7,0.2c0,48,0.1,95.9,0.1,143.9c-103.9,0-207.9,0.1-311.8,0.1
			C10.4,304.3,10.4,256.2,10.4,208.2z" />
		<path id="XMLID_00000126313460129204360960000000809318271698375310_" fill="#EA9D2D" d="M10.4,257c0,15.7,0,31.4,0,47.1
			c103.9,0.2,207.9,0.5,311.8,0.7c0-16.5,0-33,0-49.6C218.3,255.8,114.4,256.4,10.4,257z" />
		<path id="hole" fill="#C38325" d="M34.6,226.1c4.6-0.3,12.1-0.4,11.8,6.1c0.2,6.3-7.2,6.2-11.7,6
			C26.7,238.3,26.7,225.9,34.6,226.1z" />
		<path id="hole_00000075884962289173616010000006156273419335302541_" fill="#C38325" d="M34.6,274.4c4.6-0.3,12.1-0.4,11.8,6.1
			c0.2,6.3-7.2,6.2-11.7,6C26.7,286.6,26.7,274.2,34.6,274.4z" />
		<path id="hole_00000093897055988065263490000003373732157999788939_" fill="#C38325" d="M34.6,322.7c4.6-0.3,12.1-0.4,11.8,6.1
			c0.2,6.3-7.2,6.2-11.7,6C26.7,334.9,26.7,322.5,34.6,322.7z" />
		<g id="house">
			<path fill="#0A9ACD"
				d="M184.5,280.2c1.6,94.4,142,94.3,143.6,0C326.4,185.8,186.1,185.9,184.5,280.2z" />
			<path fill="#6EE7F5"
				d="M316.6,280.4c-1.3,79-118.8,78.9-120.1,0C197.9,201.5,315.3,201.5,316.6,280.4z" />
			<path fill="#D32B39"
				d="M220.2,268.3c24.1,0,48.1,0,72.2,0c-11.9-9.9-23.7-19.9-35.6-29.8C244.6,248.4,232.4,258.4,220.2,268.3z" />
			<path fill="#EAEAE8" d="M220.1,316.1c24.1,0.1,48.1,0.2,72.2,0.3c0-16,0.1-32,0.1-48.1c-24.1,0-48.1,0-72.2,0
				C220.2,284.3,220.1,300.2,220.1,316.1z" />
			<path fill="#D32B39" d="M244.6,292c0,8.1,0,16.2,0,24.2c8,0,15.9,0.1,23.9,0.1c0-8.1-0.1-16.2-0.1-24.3
				C260.4,292,252.5,292,244.6,292z" />
		</g>
	</g>
</g>
</svg>
