<?xml version="1.0" encoding="utf-8"?><!-- Generator: Adobe Illustrator 26.0.2, SVG Export Plug-In . SVG Version: 6.00 Build 0)  -->
<svg version="1.1" xmlns="http://www.w3.org/2000/svg" xmlns:xlink="http://www.w3.org/1999/xlink"
    x="0px" y="0px" viewBox="0 0 1166.2 805.1" enable-background="new 0 0 1166.2 805.1"
    xml:space="preserve">
<g id="Layer_1" display="none">
	
		<image display="inline" overflow="visible" width="512" height="512"
            xlink:href="../repair-tools.png" transform="matrix(0.75 0 0 0.75 385.37 151.42)">
	</image>
</g>
    <g id="Layer_2">
	<path id="star2" fill="#FBB540" d="M421.8,231c5.6-2.7,16.4-16.3,17.4-22.4c2.2,6.5,11.7,18.4,17.8,22.4
		c-6.4,2.4-16.2,14.7-17.4,21C436.4,245.4,428.4,235.4,421.8,231z" />
        <path id="star" fill="#FBB540" d="M458.1,192.2c5.6-2.7,16.4-16.3,17.4-22.4c2.2,6.5,11.7,18.4,17.8,22.4
		c-6.4,2.4-16.2,14.7-17.4,21C472.7,206.5,464.8,196.6,458.1,192.2z" />
        <path id="Wrench" fill="#CBCBCB" d="M507.2,214.7c4.1-12.1,14.8-17.8,19.6-19.9c1.1-0.5,2.3,0.3,2.3,1.5l0.1,22.4
		c2.6,12.2,21.7,12.2,24.3,0c0,0,0.1-22.7,0.1-22.7c0-1.2,1.2-2,2.3-1.5c12.6,5.3,28.7,22.5,17.6,45c-2.5,4.9-11.8,15.7-14,19.9
		c-1.6,1.7,2.8,128.6-1.9,128.2c0,0-32.7-0.1-32.7-0.1c-4.7,0.3,0.3-126.1-1.3-127.8C512.4,246.1,500.6,229.2,507.2,214.7z" />
        <g id="hammer">
		<g id="hamer_handle">
			<path fill="#683B0D" d="M469.4,382.5c10.1,0.1,20.1,0.2,30.2,0.2c0-19.1,0-38.3,0-57.4c-10.1,0-20.2,0-30.3,0
				C469.3,344.4,469.3,363.4,469.4,382.5z" />
            <path fill="#533222" d="M469.2,311.1c0,4.8,0,9.5,0,14.3c10.1,0,20.2,0,30.3,0c0-4.2-0.1-8.4-0.1-12.6
				C489.4,312.2,479.3,311.6,469.2,311.1z" />
		</g>
            <g id="hamer_head_00000076562235517075171840000008081847617048613801_">
			<path id="hamer_head" fill="#0BAFEA" d="M499.6,283.4l-0.2-6.1l-36,0.2c-0.1,2-0.2,3.9-0.2,5.9c-7.9-2-15.8-3.9-23.7-5.9h-24.2
				c0.1,12,0.2,24,0.3,35.9l24.4,0c7.8-2,15.5-4.1,23.3-6.1v5.9h36.2C499.9,303.4,499.6,293.4,499.6,283.4z" />
                <path id="front_shadow" fill="#0A9ACD" d="M439.3,277.4c0,12,0,24,0,36c8-2,15.9-4,23.9-6c0-8,0-16,0-24
				C455.3,281.4,447.3,279.4,439.3,277.4z" />
                <path id="back_shadow" fill="#0A9ACD" d="M499.6,283.4c0,7.9,0,15.8,0,23.7c4.1,0.1,8.2,0.1,12.3,0.2
				c4.6,10.4,17.4,14.1,29.5,11.9c-6-12-12-23.9-18-35.9C515.5,283.3,507.5,283.4,499.6,283.4z" />
		</g>
	</g>
        <path id="Key_00000026129456734873825520000001558050177072432805_" fill="#D32B39" d="M619.9,247.5c-17.8-0.3-33.1,13-35.8,30
		c-2.2,13.6,4,27.5,15.8,35.7c1,0.7,1.6,1.8,1.6,3l-0.1,58.5c0,2,1.6,3.7,3.6,3.7c0,0,28.9,0.3,28.9,0.3c9,2.8-0.2-63.9,5.2-65.3
		C667.8,295,654.2,247.4,619.9,247.5z M626,295.3h-13.8l-6.9-11.9l6.9-11.9H626l6.9,11.9L626,295.3z" />
        <g id="Screw_Driver">
		<path fill="#CBCBCB" d="M673.3,217.3c11.9,0.1,23.9,0.2,35.8,0.3c-11.4,32-3.1,67.7-5.4,101.3c-8.2,0-16.3,0-24.5,0
			C676.9,285.2,685.8,249.1,673.3,217.3z" />
            <path fill="#EAEAE8" d="M679.3,193.8c-2,7.8-4,15.6-6,23.4c11.9,0.1,23.9,0.2,35.8,0.3c-1.9-7.9-3.7-15.8-5.6-23.6
			C695.5,193.9,687.4,193.9,679.3,193.8z" />
            <path fill="#02A437" d="M716,335.6c-1.8,1.4-4.1,2.1-6.5,2.1v36.6c-12-0.1-24-0.3-36-0.4c-0.1-12.2-0.2-24.4-0.3-36.7
			c-15.8,0.4-15-23.9-0.4-23.9c12.2,0,24.4,0.1,36.7,0.1C720.9,313.2,724.8,329.4,716,335.6z" />
            <path fill="#027E2A"
                d="M709.6,337.7v14c-12,0-24.1,0.1-36.1,0.1c0-4.9-0.1-9.8-0.1-14.7C685.4,337.3,697.5,337.5,709.6,337.7z" />
	</g>
        <g id="box">
		<path fill="#FBB540" d="M421.4,373.2c103.9,0.1,207.8,0.1,311.7,0.2c0,48,0.1,95.9,0.1,143.9c-103.9,0-207.9,0.1-311.8,0.1
			C421.4,469.3,421.4,421.2,421.4,373.2z" />
            <path id="XMLID_00000126313460129204360960000000809318271698375310_" fill="#EA9D2D" d="M421.4,422c0,15.7,0,31.4,0,47.1
			c103.9,0.2,207.9,0.5,311.8,0.7c0-16.5,0-33,0-49.6C629.3,420.8,525.4,421.4,421.4,422z" />
            <path id="hole" fill="#C38325" d="M445.6,391.1c4.6-0.3,12.1-0.4,11.8,6.1c0.2,6.3-7.2,6.2-11.7,6
			C437.7,403.3,437.7,390.9,445.6,391.1z" />
            <path id="hole_00000075884962289173616010000006156273419335302541_" fill="#C38325" d="M445.6,439.4c4.6-0.3,12.1-0.4,11.8,6.1
			c0.2,6.3-7.2,6.2-11.7,6C437.7,451.6,437.7,439.2,445.6,439.4z" />
            <path id="hole_00000093897055988065263490000003373732157999788939_" fill="#C38325" d="M445.6,487.7c4.6-0.3,12.1-0.4,11.8,6.1
			c0.2,6.3-7.2,6.2-11.7,6C437.7,499.9,437.7,487.5,445.6,487.7z" />
            <g id="house">
			<path fill="#0A9ACD"
                d="M595.5,445.2c1.6,94.4,142,94.3,143.6,0C737.4,350.8,597.1,350.9,595.5,445.2z" />
                <path fill="#6EE7F5"
                    d="M727.6,445.4c-1.3,79-118.8,78.9-120.1,0C608.9,366.5,726.3,366.5,727.6,445.4z" />
                <path fill="#D32B39"
                    d="M631.2,433.3c24.1,0,48.1,0,72.2,0c-11.9-9.9-23.7-19.9-35.6-29.8C655.6,413.4,643.4,423.4,631.2,433.3z" />
                <path fill="#EAEAE8" d="M631.1,481.1c24.1,0.1,48.1,0.2,72.2,0.3c0-16,0.1-32,0.1-48.1c-24.1,0-48.1,0-72.2,0
				C631.2,449.3,631.1,465.2,631.1,481.1z" />
                <path fill="#D32B39" d="M655.6,457c0,8.1,0,16.2,0,24.2c8,0,15.9,0.1,23.9,0.1c0-8.1-0.1-16.2-0.1-24.3
				C671.4,457,663.5,457,655.6,457z" />
		</g>
	</g>
</g>
</svg>
