<?xml version="1.0" encoding="utf-8"?><!-- Generator: Adobe Illustrator 26.0.2, SVG Export Plug-In . SVG Version: 6.00 Build 0)  -->
<svg version="1.1" id="Layer_1" xmlns="http://www.w3.org/2000/svg" x="0px" y="0px"
    viewBox="0 0 143.02 425.12" enable-background="new 0 0 143.02 425.12" xml:space="preserve">
<path fill="#2F2E41" d="M115.42,28.44c-37.46-38.21-79.77,9.29-53.4,46.6C65.04,75.22,78.1,75.3,117,70.5l1.74-9.4l5,8.57
	c2.08-0.25,4.24-0.52,6.5-0.79C129.21,58.91,124.48,41.2,115.42,28.44z" />
    <path fill="#FFB8B8" d="M137.61,213.96l-2.49-85.81l-16.98,7.43l8.19,79.31c-10.75,8.09,2.2,24.79,12.71,16.39
	C144.94,226.91,144.12,217.32,137.61,213.96L137.61,213.96z" />
    <path fill="#E6E6E6"
        d="M115.48,139.3c11.08,1.07,19.03-3.5,24.41-12.74c-4.55-17.38-2.31-36.88-23.88-42.46L115.48,139.3z" />
    <path fill="#F8B445" d="M23.09,115.71c-0.39-0.11-20.49-0.35-20.92-0.39c-0.22-0.6,1.73-42.13,1.66-42.75
	c0.08-1.81,1.62-3.22,3.43-3.14c0,0,16.41,0.73,16.41,0.73c1.81,0.08,3.22,1.62,3.14,3.43C25.76,74.82,27.39,117.5,23.09,115.71
	L23.09,115.71z" />
    <path fill="#2F2E41" d="M20.86,115.74c-0.17,0.06-16.07-0.76-16.24-0.72c-1.9-0.09-3.37-1.7-3.29-3.6l1.72-38.55
	c0.08-1.81,1.62-3.22,3.43-3.14l16.41,0.73c1.81,0.08,3.22,1.62,3.14,3.43l-1.72,38.55C24.22,114.28,22.7,115.74,20.86,115.74
	L20.86,115.74z" />
    <path fill="#F8B445"
        d="M13.66,77.45c3.05-0.04,3.05,4.74,0,4.7C10.61,82.2,10.61,77.41,13.66,77.45z" />
    <path fill="#FFB8B8" d="M33.19,126.2v15.49L18.22,118.1c6.56-10.85-10.63-20.9-16.87-9.86c-3.63,5.91,0.48,14.02,7.36,14.64
	c0,0,20.92,37.07,20.92,37.07c2.83,5.01,9.19,6.78,14.2,3.95c8.25-3.17,6.08-29.09,7.84-35.72L33.19,126.2z" />
    <path fill="#E6E6E6"
        d="M53.68,138.19c-10.43,1.01-17.92-3.3-22.99-12c4.29-16.37,2.18-34.74,22.49-39.99L53.68,138.19z" />
    <polygon fill="#FFB6B6" points="77.86,415.83 66.45,413.98 68.16,369.08 85.01,371.81 " />
    <path fill="#2F2E41"
        d="M80.43,424.46l-37.28,0.04C43,404.59,67.8,410.21,80.41,409.48L80.43,424.46z" />
    <polygon fill="#FFB6B6" points="132.4,389.69 122.08,394.9 97.08,357.56 112.31,349.87 " />
    <path fill="#2F2E41"
        d="M140.08,398.37l-33.28,16.79c-9.08-17.72,15.6-23.85,26.53-30.17L140.08,398.37z" />
    <path fill="#FFB8B8"
        d="M86.09,30.58c26.68,0.46,26.67,40.14,0,40.59C59.42,70.71,59.42,31.03,86.09,30.58z" />
    <path fill="#2F2E41"
        d="M111.25,30.41l-18.4-9.64l-25.42,3.94l-5.26,23.23c25.96,3.73,43.92,5.87,49.96-0.44L111.25,30.41z" />
    <path fill="#2F2E41" d="M53.36,177.78c-26.33,35.62,33.24,155.04,49.02,199.2l22.64-13.38l-23.07-51.98
	c7.11-28.46,28.17-78.56,22.68-108.14C122.53,152.68,70,172.85,53.36,177.78z" />
    <polygon fill="#2F2E41" points="79.24,302.42 62.08,389.45 84.94,393.76 99.32,318.43 " />
    <path fill="#E4E4E4" d="M101.06,81.08l-26.24,0.35l-22.97,5.28l1.36,92c0,0,41.53,11.75,59.77-4.5l12.03-86.11
	C118.26,84.29,110.16,82.09,101.06,81.08z" />
    <path fill="#2F2E41" d="M98.74,4.1c17,0.08,17,25.93,0,26C81.74,30.02,81.74,4.17,98.74,4.1z" />
    <path fill="#2F2E41" d="M85.74,14.1C85.64,6,93.36-0.31,101.28,1.35c-17.47-7.78-26.74,20.37-8.08,24.5
	C88.65,23.71,85.74,19.13,85.74,14.1z" />
</svg>
