<?xml version="1.0" encoding="utf-8"?><!-- Generator: Adobe Illustrator 26.0.2, SVG Export Plug-In . SVG Version: 6.00 Build 0)  -->
<svg version="1.1" id="Layer_1" xmlns="http://www.w3.org/2000/svg" x="0px" y="0px"
    viewBox="0 0 142.39 410.48" enable-background="new 0 0 142.39 410.48" xml:space="preserve">
<path fill="#F8B445"
    d="M105.2,101.43H50.06V84.69c17.43-12.13,32.87-11.07,53.18,0.98L105.2,101.43z" />
    <polygon fill="#FFB8B8" points="37.29,398.78 25.22,398.78 23.41,352.21 37.29,352.21 " />
    <path fill="#2F2E41"
        d="M40.37,410.48l-38.93,0c-0.13-20.79,25.76-14.9,38.93-15.64L40.37,410.48z" />
    <polygon fill="#FFB8B8" points="105.29,398.78 117.36,398.78 119.17,352.21 105.29,352.21 " />
    <path fill="#2F2E41"
        d="M102.21,394.84c13.22,0.75,39.04-5.15,38.93,15.64l-38.93,0L102.21,394.84z" />
    <path fill="#2F2E41" d="M105.61,392.81c-2.07-0.01-3.87-1.45-4.33-3.47L71.36,258.82c-0.26-1.5-2.64-1.54-2.89,0.01
	c0,0-27.48,129.64-27.48,129.64c-0.78,5.9-13.74,2.78-17.43,3.51c-2.54,0.01-4.58-2.16-4.42-4.69c0,0,9.75-164.31,9.75-164.31
	l3.92-1.16c0.08,0,77.05,0.67,77.14,0.68l16.41,164.13c0.24,2.46-1.59,4.65-4.05,4.85C121.96,391.49,105.93,392.82,105.61,392.81z" />
    <g>
	<path fill="#2F2E41" d="M99.56,44.07C92.69,57.57,87.28,71.5,72.13,71.5c-15.15,0-27.43-12.28-27.43-27.43
		C42.75,5.79,120.07,8.13,99.56,44.07z" />
        <path fill="#FFB8B8"
            d="M56.46,30.96c22.75-21.99,56.02,11.29,34.03,34.03C67.74,86.97,34.48,53.7,56.46,30.96z" />
        <path fill="#2F2E41" d="M99.01,34.37c-5.5,3.79-12.03,5.81-18.7,5.78c2.38,1.65,5.09,2.77,7.95,3.27
		c-10.08,3.11-49.63,2.64-31.31-14.96c9.1-9.36,46.12-11.2,39.12,8.53L99.01,34.37z" />
</g>
    <path fill="#3F3D56" d="M58.96,241c-11.83,0.39-28.37-6.07-29.64-19.22c2.67-9.1,15.56-56.43,7.33-94.05
	c-5.12-21.12,9.72-44.1,31.2-47.81l0,0c25.13-6.29,50.76,15.96,48.46,41.67c0,0-6.32,101.43-6.32,101.43
	C106.43,231.13,77.85,240.14,58.96,241z" />
    <path fill="#F8B445" d="M57.3,234.91c-0.61,0-1.22-0.13-1.77-0.37L9.64,214.51c-2.02-0.86-3.09-3.08-2.51-5.2L37.5,94.55
	c5.45-16.54,19.96-12.62,32.77-8.25l-8.55,144.44C61.62,233.01,59.58,234.94,57.3,234.91z" />
    <path fill="#F8B445" d="M142.23,209.31c-2.86-10.8-6.41-24.22-9.28-35.03c0,0-21.1-79.73-21.1-79.73
	c-5.43-16.55-19.96-12.62-32.76-8.25c1.88,31.13,6.76,114.66,8.55,144.44c0.13,3,3.46,5.06,6.19,3.8c0,0,45.89-20.03,45.89-20.03
	C141.74,213.64,142.81,211.42,142.23,209.31z" />
    <polygon fill="#CCCCCC" points="135.88,185.32 85.73,198.5 85.1,187.89 132.95,174.28 " />
    <polygon fill="#CCCCCC" points="140.21,201.7 86.75,215.74 86.12,205.18 137.29,190.63 " />
    <polygon fill="#CCCCCC" points="63.63,190.17 63.01,200.58 13.82,185.93 16.71,175.04 " />
    <polygon fill="#CCCCCC" points="62.6,207.44 12.41,191.24 9.53,202.16 61.99,217.79 " />
    <path fill="#FFB8B8" d="M13.29,218.32c6.32-1.58,9.71-8.78,6.94-14.66l23.6-74.08l-16.73-3.5L5.45,198.7
	C-5.49,204.3,1.54,221.78,13.29,218.32L13.29,218.32z" />
    <path fill="#3F3D56" d="M44.47,93.16L44.47,93.16c4.8,0.49,7.51,5.89,6.31,12.62l-5.73,32.28c-0.43,2.42-2.42,4.34-4.08,3.92
	l-19.39-4.85c-1.49-0.37-2.04-2.49-1.2-4.61C25.36,124.19,31.27,91.63,44.47,93.16z" />
    <g>
	<path fill="#D0D2D5" d="M33.46,161.86c-1.48,1.48-1.66,2.13-2.55,2.42c-3.76,1.77-4.74,3.34-0.3,5.63l0.41,1.24l-4.09,7.28
		c-8.88-4.07-7.7,3.98-7.82,9.72c0.14,3.97-0.93,3.76-1.36,1.54c-0.98-2.07-7.03-15.3,2.62-24.75c0,0,4.44-0.29,5.51-5.38
		C26.89,153.44,35.85,158.01,33.46,161.86z" />
        <path opacity="0.1" enable-background="new    " d="M30.61,169.91l0.41,1.24l-4.09,7.28c-8.88-4.07-7.71,3.98-7.82,9.72
		c0.07,4.26-0.9,3.64-1.47,1.33c-0.3-2.28-1.81-15.59,3.66-14.89c0,0,4.44,2.07,5.15,1.25c0.56-0.66,3.06-4.42,4.07-5.97
		L30.61,169.91z" />
        <path opacity="0.1" enable-background="new    " d="M33.56,159.26l-2.7,3.07c-0.52,0.71-4.69,6.68-5.45,2.72
		c0.52-1.44,3.43-3.73,3.49-4.43c0.13-0.47,1.39-2.55,2.01-3.57C32.02,157.46,32.92,158.27,33.56,159.26z" />
        <path fill="#454B69" d="M110.05,203.46c-0.63,1.19-3.16,4.88-4.32,6.57c-3.71,1.14-76.78-32.5-78.42-32.26l-0.49-1.47l3.56-5.33
		l79.02,30.53C109.4,201.51,110.64,202.28,110.05,203.46z" />
        <path opacity="0.1" enable-background="new    " d="M106.21,209.32c-0.93,0.88,0.08,2.01-3.74,0.41
		c-3.07-1.54-75.17-31.96-75.17-31.96l-0.49-1.47L106.21,209.32z" />
</g>
    <path fill="#F8B445" d="M74.13,0L74.13,0c15.13,0,27.52,12.02,27.99,27.13c1.47,0.34,7.19-1.13,7.02,1.75
	c-0.56,1.55,1.43,8.95-1.75,8.75c0,0-59.52,0-59.52,0c-0.97,0-1.75-0.78-1.75-1.75C43.66,18.03,54.84-0.2,74.13,0z" />
    <path fill="#FFB8B8" d="M70.8,181.44c0.54,0.06,1.08,0.17,1.6,0.31l37.07-31.79l-2.17-11.66l17.18-5.57
	c0.7,6.42,11,24.74,2.49,29.12c0,0-46.95,29.71-46.95,29.71c0.15,13.52-20.4,13.84-20.67,0.33C59.2,185.72,64.68,180.74,70.8,181.44
	L70.8,181.44z" />
    <path fill="#3F3D56" d="M109.57,95.83L109.57,95.83c5.13-1.44,10.26,2.47,11.98,9.12l8.25,31.94c0.62,2.39-0.58,4.94-2.46,5.21
	c0,0-21.97,3.16-21.97,3.16c-1.69,0.24-3.18-1.49-3.24-3.77C103.47,131.51,95.55,99.3,109.57,95.83z" />
</svg>
